<svg width="250" height="220" viewBox="0 0 250 220" fill="none" xmlns="http://www.w3.org/2000/svg">
<path id="Logo New" d="M118.477 3.72488C116.433 6.61579 1.84655 206.793 1.84655 206.793C-2.70028 214.954 1.84808 219.727 7.92166 219.727H106.514C110.871 219.727 114.159 214.107 112.063 210.019L101.381 191.153C99.9068 188.932 98.303 188.101 95.1389 188.101H60.3205C53.8683 188.101 50.7388 183.213 52.9684 178.113C52.9684 178.113 86.8565 118.555 90.814 111.597C94.7715 104.638 100.998 104.094 105.135 111.324L164.459 215.19C166.873 219.005 167.743 219.727 172.559 219.727H243.897C247.732 219.727 251.89 213.849 248.319 207.576C248.319 207.576 132.343 6.08594 130.782 3.72488C129.221 1.36381 126.92 0 124.656 0C122.392 0 120.522 0.833963 118.477 3.72488Z" fill="#F9F9F9"/>
</svg>
